<svg xmlns="http://www.w3.org/2000/svg" viewBox="55 367 361 346">
  <path d="m237.09,707.884c-.809,0-1.897-.233-2.983-1.177-2.144-1.868-7.165-6.243-15.295-83.423-4.705-44.651-8.369-94.269-10.078-123.192-.416-7.058-.688-14.225-.951-21.155-.157-4.133-.313-8.266-.5-12.397-2.698-59.692-7.463-80.732-11.049-87.797-5.265,12.739-8.769,64.878-13.366,156.278-2.673,53.143-7.386,82.775-14.008,88.076-1.616,1.294-3.185,1.354-4.217,1.174-7.876-1.358-10.441-16.272-12.976-35.629-2.004-15.295-3.417-28.785-4.664-40.687-3.057-29.173-5.076-48.445-11.711-52.82-.655-.432-2.019-1.107-3.853-.766-3.297.614-5.295,4.535-8.544,11.411-3.3,6.984-7.407,15.676-15.631,23.901-11.694,11.695-31.829,11.695-46.53,11.695v-6.412c16.958,0,32.931-.751,41.997-9.817,7.437-7.437,11.28-15.57,14.367-22.106,3.482-7.369,6.488-13.732,13.17-14.976,2.998-.558,6.034.053,8.556,1.716,9.166,6.044,11.081,24.322,14.558,57.504,1.244,11.863,2.653,25.31,4.645,40.523.927,7.077,1.958,14.492,3.459,20.53,1.582,6.359,3.068,8.538,3.792,9.264,1.681-2.393,7.804-15.586,11.19-82.905,5.522-109.77,8.798-146.879,14.021-158.823.972-2.221,3.08-3.66,5.502-3.755,2.383-.082,4.603,1.165,5.738,3.286,5.776,10.811,9.689,40.526,11.963,90.844.188,4.147.344,8.295.502,12.444.261,6.897.531,14.029.944,21.02,1.69,28.6,5.314,77.739,9.97,122.103,5.893,56.165,10.114,73.063,12.171,78.128,1.372-3.027,3.735-10.828,6.737-30.91,2.921-19.544,5.998-47.425,9.405-85.236.908-10.069,1.767-19.728,2.587-28.951,9.478-106.546,12.183-127.857,21.428-127.857.049,0,.097,0,.147.002,8.252.197,12.49,20.162,20.884,69.136,3.766,21.977,8.862,51.712,12.732,57.115,1.038-1.221,2.488-4.303,3.325-6.081,2.492-5.295,5.071-10.772,10.027-9.638,6.249,1.427,8.125,10.733,10.498,22.515,1.764,8.754,4.428,21.982,8.924,22.083h.054c3.284,0,6.819-6.694,10.56-13.78,4.559-8.634,10.232-19.38,19.539-27.062,7.07-5.834,21.217-5.665,32.575-5.528,1.472.018,2.888.034,4.223.037l-.011,6.412c-1.355-.003-2.794-.02-4.288-.038-9.768-.115-23.157-.278-28.415,4.061-8.319,6.866-13.436,16.559-17.951,25.112-5.067,9.597-9.081,17.198-16.201,17.199-.076,0-.151-.001-.228-.003-9.624-.216-12.391-13.948-15.066-27.227-1.043-5.173-3.138-15.579-5.214-17.303-.949,1.055-2.347,4.027-3.224,5.889-2.448,5.206-5.224,11.112-10.381,10.03-6.353-1.326-9.673-15.308-17.798-62.71-2.593-15.135-5.276-30.784-8.014-42.914-3.158-13.987-5.425-18.698-6.527-20.275-1.302,2.303-3.71,9.787-6.683,33.82-2.624,21.217-5.23,50.5-8.527,87.573-.82,9.225-1.68,18.887-2.587,28.959-3.633,40.308-6.908,69.51-10.012,89.274-4.883,31.09-8.639,33.928-12.373,34.222-.103.008-.214.014-.33.014Zm74.643-154.043s0,0,0,0h0Z" fill="#2ABFB3"/>
</svg>