<?xml version='1.0' encoding='utf-8'?>
<svg xmlns="http://www.w3.org/2000/svg" xmlns:xlink="http://www.w3.org/1999/xlink" viewBox="68 395 340 295">
  <defs>
    <linearGradient id="uuid-576902d1-63f1-4f6c-97a8-4d39977a7d52" data-name="Degradado sin nombre 760" x1="89.459" y1="505.898" x2="170.127" y2="541.475" gradientUnits="userSpaceOnUse">
      <stop offset="0" stop-color="#0fd3de" stop-opacity="0" />
      <stop offset=".025" stop-color="#0ec7d3" stop-opacity=".126" />
      <stop offset=".086" stop-color="#0daebc" stop-opacity=".393" />
      <stop offset=".149" stop-color="#0b9aaa" stop-opacity=".614" />
      <stop offset=".216" stop-color="#0b8a9c" stop-opacity=".784" />
      <stop offset=".287" stop-color="#0a7f91" stop-opacity=".905" />
      <stop offset=".365" stop-color="#0a798b" stop-opacity=".977" />
      <stop offset=".464" stop-color="#0a778a" />
      <stop offset=".69" stop-color="#0a788b" stop-opacity=".986" />
      <stop offset=".771" stop-color="#0a7c8f" stop-opacity=".937" />
      <stop offset=".829" stop-color="#0a8496" stop-opacity=".851" />
      <stop offset=".876" stop-color="#0b8fa0" stop-opacity=".729" />
      <stop offset=".916" stop-color="#0c9eae" stop-opacity=".57" />
      <stop offset=".952" stop-color="#0db0be" stop-opacity=".373" />
      <stop offset=".983" stop-color="#0ec5d1" stop-opacity=".145" />
      <stop offset="1" stop-color="#0fd3de" stop-opacity="0" />
    </linearGradient>
    <linearGradient id="uuid-fb61bcb0-49f3-4f6e-9350-c80ee676b442" data-name="Degradado sin nombre 753" x1="84.754" y1="515.747" x2="166.743" y2="551.906" gradientUnits="userSpaceOnUse">
      <stop offset=".235" stop-color="#0a778a" />
      <stop offset=".585" stop-color="#0a788b" />
      <stop offset=".711" stop-color="#0a7f91" />
      <stop offset=".801" stop-color="#0b8b9c" />
      <stop offset=".873" stop-color="#0c9cac" />
      <stop offset=".936" stop-color="#0db2c0" />
      <stop offset=".99" stop-color="#0eccd8" />
      <stop offset="1" stop-color="#0fd3de" />
    </linearGradient>
    <linearGradient id="uuid-ad9f3339-203c-46bf-8fce-0c2a7fdcf4f0" data-name="Degradado sin nombre 759" x1="82.35" y1="522.017" x2="163.018" y2="557.594" gradientUnits="userSpaceOnUse">
      <stop offset=".257" stop-color="#0a778a" />
      <stop offset=".597" stop-color="#0a788b" />
      <stop offset=".719" stop-color="#0a7f91" />
      <stop offset=".806" stop-color="#0b8b9c" />
      <stop offset=".877" stop-color="#0c9cac" />
      <stop offset=".937" stop-color="#0db2c0" />
      <stop offset=".99" stop-color="#0eccd8" />
      <stop offset="1" stop-color="#0fd3de" />
    </linearGradient>
    <linearGradient id="uuid-7e113c40-39cf-4ceb-b0fa-2b0ee21fb977" data-name="Degradado sin nombre 758" x1="80.2" y1="526.892" x2="160.868" y2="562.469" gradientUnits="userSpaceOnUse">
      <stop offset="0" stop-color="#0a778a" />
      <stop offset=".175" stop-color="#0a798c" />
      <stop offset=".267" stop-color="#0a8193" />
      <stop offset=".34" stop-color="#0b8e9f" />
      <stop offset=".402" stop-color="#0ca1b0" />
      <stop offset=".457" stop-color="#0dbac7" />
      <stop offset=".5" stop-color="#0fd3de" />
      <stop offset=".521" stop-color="#12c7d3" />
      <stop offset=".574" stop-color="#1ab0bd" />
      <stop offset=".635" stop-color="#1f9dac" />
      <stop offset=".707" stop-color="#2390a0" />
      <stop offset=".802" stop-color="#268999" />
      <stop offset="1" stop-color="#278798" />
    </linearGradient>
    <linearGradient id="uuid-a54e1e6d-e72c-4a4f-b4a4-f33c91565ea8" data-name="Degradado sin nombre 757" x1="78.701" y1="530.292" x2="159.369" y2="565.869" gradientUnits="userSpaceOnUse">
      <stop offset="0" stop-color="#0a778a" />
      <stop offset=".108" stop-color="#0b8d9e" />
      <stop offset=".37" stop-color="#0dbfcc" />
      <stop offset=".5" stop-color="#0fd3de" />
      <stop offset=".701" stop-color="#17b7c4" />
      <stop offset="1" stop-color="#278798" />
    </linearGradient>
    <linearGradient id="uuid-40dc4e65-450e-45d0-b153-6e4d86d6e7ea" data-name="Degradado sin nombre 756" x1="75.62" y1="537.277" x2="156.288" y2="572.854" gradientUnits="userSpaceOnUse">
      <stop offset="0" stop-color="#0a778a" />
      <stop offset=".072" stop-color="#0b8e9f" />
      <stop offset=".184" stop-color="#0cacba" />
      <stop offset=".294" stop-color="#0ec1ce" />
      <stop offset=".401" stop-color="#0eceda" />
      <stop offset=".5" stop-color="#0fd3de" />
      <stop offset=".671" stop-color="#0fd0db" />
      <stop offset=".771" stop-color="#12c8d4" />
      <stop offset=".852" stop-color="#16bac7" />
      <stop offset=".924" stop-color="#1da6b4" />
      <stop offset=".988" stop-color="#258c9d" />
      <stop offset="1" stop-color="#278798" />
    </linearGradient>
    <linearGradient id="uuid-af95e0c9-9f41-4b5c-a639-9878d9f3f060" data-name="Degradado sin nombre 755" x1="151.085" y1="539.893" x2="183.542" y2="539.893" gradientUnits="userSpaceOnUse">
      <stop offset=".034" stop-color="#0a778a" />
      <stop offset=".547" stop-color="#0fd3de" />
      <stop offset=".636" stop-color="#10cdd8" />
      <stop offset=".752" stop-color="#13bcc9" />
      <stop offset=".883" stop-color="#19a1b0" />
      <stop offset="1" stop-color="#208395" />
    </linearGradient>
    <linearGradient id="uuid-aedccc1d-cdd6-4b59-a4c9-93176368e579" data-name="Degradado sin nombre 754" x1="153.516" y1="550.212" x2="179.091" y2="550.212" gradientUnits="userSpaceOnUse">
      <stop offset=".034" stop-color="#0a778a" />
      <stop offset=".213" stop-color="#0a7c8e" />
      <stop offset=".429" stop-color="#0b8a9c" />
      <stop offset=".664" stop-color="#0ca3b2" />
      <stop offset=".912" stop-color="#0ec5d1" />
      <stop offset="1" stop-color="#0fd3de" />
    </linearGradient>
    <linearGradient id="uuid-a7177f3f-0a04-4591-8cbf-be8745dc23c3" data-name="Degradado sin nombre 753" x1="152.173" y1="557.567" x2="179.651" y2="557.567" xlink:href="#uuid-fb61bcb0-49f3-4f6e-9350-c80ee676b442" />
    <linearGradient id="uuid-99e94042-822d-441b-967f-f3466f51eef8" data-name="Degradado sin nombre 753" x1="154.311" y1="567.046" x2="178.436" y2="567.046" xlink:href="#uuid-fb61bcb0-49f3-4f6e-9350-c80ee676b442" />
    <linearGradient id="uuid-fbf6dc79-82b7-4c5e-b462-68559be53c4d" data-name="Degradado sin nombre 753" x1="155.548" y1="581.219" x2="178.198" y2="581.219" xlink:href="#uuid-fb61bcb0-49f3-4f6e-9350-c80ee676b442" />
    <linearGradient id="uuid-7656eb2e-a530-44b0-b9ca-081c286750b6" data-name="Degradado sin nombre 752" x1="182.826" y1="525.166" x2="211.577" y2="478.007" gradientUnits="userSpaceOnUse">
      <stop offset=".011" stop-color="#0fd3de" />
      <stop offset=".209" stop-color="#10c9d5" />
      <stop offset=".532" stop-color="#16b1bf" />
      <stop offset=".94" stop-color="#1e899a" />
      <stop offset="1" stop-color="#208395" />
    </linearGradient>
    <linearGradient id="uuid-f2d3bbd5-2e6b-484a-b3a6-5b0dad3a83b8" data-name="Degradado sin nombre 751" x1="208.497" y1="467.929" x2="181.194" y2="513.847" gradientUnits="userSpaceOnUse">
      <stop offset=".034" stop-color="#0a778a" />
      <stop offset=".305" stop-color="#0b8c9d" />
      <stop offset=".866" stop-color="#0ec4d0" />
      <stop offset="1" stop-color="#0fd3de" />
    </linearGradient>
    <linearGradient id="uuid-9d148ef7-dec7-44f7-be4c-73d905b2103a" data-name="Degradado sin nombre 751" x1="213.748" y1="425.69" x2="188.927" y2="500.566" xlink:href="#uuid-f2d3bbd5-2e6b-484a-b3a6-5b0dad3a83b8" />
    <linearGradient id="uuid-8bb94314-7e7b-47b8-868f-a13ea7527689" data-name="Degradado sin nombre 751" x1="206.706" y1="423.355" x2="181.885" y2="498.232" xlink:href="#uuid-f2d3bbd5-2e6b-484a-b3a6-5b0dad3a83b8" />
    <linearGradient id="uuid-e4729968-b0b9-4031-b03a-d1a573e8c5be" data-name="Degradado sin nombre 751" x1="200.177" y1="421.191" x2="175.356" y2="496.067" xlink:href="#uuid-f2d3bbd5-2e6b-484a-b3a6-5b0dad3a83b8" />
    <linearGradient id="uuid-6767044c-624c-4021-965e-0a8cd4dcac52" data-name="Degradado sin nombre 750" x1="217.076" y1="461.591" x2="258.858" y2="546.81" gradientUnits="userSpaceOnUse">
      <stop offset=".011" stop-color="#0fd3de" />
      <stop offset=".34" stop-color="#0fd0db" />
      <stop offset=".535" stop-color="#11c8d4" />
      <stop offset=".695" stop-color="#14b9c7" />
      <stop offset=".836" stop-color="#18a5b4" />
      <stop offset=".963" stop-color="#1e8c9d" />
      <stop offset="1" stop-color="#208395" />
    </linearGradient>
    <linearGradient id="uuid-4221f1fb-20ee-44da-8c57-a3e2f12217d0" data-name="Degradado sin nombre 750" x1="209.305" y1="515.63" x2="259.094" y2="515.63" xlink:href="#uuid-6767044c-624c-4021-965e-0a8cd4dcac52" />
    <linearGradient id="uuid-3275761e-5b77-4c55-b857-ab6c3b9c1f48" data-name="Degradado sin nombre 749" x1="211.056" y1="528.967" x2="258.265" y2="528.967" gradientUnits="userSpaceOnUse">
      <stop offset="0" stop-color="#0fd3de" />
      <stop offset=".119" stop-color="#10cfda" />
      <stop offset=".223" stop-color="#16c4d0" />
      <stop offset=".321" stop-color="#20b2c0" />
      <stop offset=".416" stop-color="#2d99a9" />
      <stop offset=".453" stop-color="#348e9e" />
      <stop offset=".501" stop-color="#3192a2" />
      <stop offset=".554" stop-color="#2a9fae" />
      <stop offset=".609" stop-color="#1fb4c2" />
      <stop offset=".665" stop-color="#0fd3de" />
      <stop offset=".751" stop-color="#14bbc8" />
      <stop offset=".915" stop-color="#1c92a3" />
      <stop offset="1" stop-color="#208395" />
    </linearGradient>
    <linearGradient id="uuid-0e9b8ea3-fff9-4b03-be92-e8389003c0ba" data-name="Degradado sin nombre 749" x1="209.361" y1="540.716" x2="255.92" y2="540.716" xlink:href="#uuid-3275761e-5b77-4c55-b857-ab6c3b9c1f48" />
    <linearGradient id="uuid-20638b32-b15b-4ee1-8457-82a470192bf4" data-name="Degradado sin nombre 748" x1="212.211" y1="552.897" x2="255.323" y2="552.897" gradientUnits="userSpaceOnUse">
      <stop offset="0" stop-color="#0fd3de" />
      <stop offset=".006" stop-color="#11ceda" />
      <stop offset=".044" stop-color="#1db7c4" />
      <stop offset=".088" stop-color="#27a4b3" />
      <stop offset=".139" stop-color="#2e97a7" />
      <stop offset=".206" stop-color="#3290a0" />
      <stop offset=".346" stop-color="#348e9e" />
      <stop offset=".42" stop-color="#3192a2" />
      <stop offset=".499" stop-color="#2a9fae" />
      <stop offset=".581" stop-color="#1fb4c2" />
      <stop offset=".665" stop-color="#0fd3de" />
      <stop offset=".751" stop-color="#14bbc8" />
      <stop offset=".915" stop-color="#1c92a3" />
      <stop offset="1" stop-color="#208395" />
    </linearGradient>
    <linearGradient id="uuid-76e15814-4012-47b5-90b4-47a41f451d38" data-name="Degradado sin nombre 747" x1="212.202" y1="578.076" x2="253.94" y2="578.076" gradientUnits="userSpaceOnUse">
      <stop offset="0" stop-color="#0a778a" />
      <stop offset=".195" stop-color="#0a798c" />
      <stop offset=".298" stop-color="#0a8193" />
      <stop offset=".379" stop-color="#0b8e9f" />
      <stop offset=".449" stop-color="#0ca1b1" />
      <stop offset=".511" stop-color="#0dbac7" />
      <stop offset=".559" stop-color="#0fd3de" />
      <stop offset=".671" stop-color="#0db3c0" />
      <stop offset=".808" stop-color="#0b92a2" />
      <stop offset=".923" stop-color="#0a7e90" />
      <stop offset="1" stop-color="#0a778a" />
    </linearGradient>
    <linearGradient id="uuid-bb612c40-d841-4844-a0b8-6454a803e840" data-name="Degradado sin nombre 746" x1="227.204" y1="670.339" x2="248.889" y2="670.339" gradientUnits="userSpaceOnUse">
      <stop offset="0" stop-color="#0a778a" />
      <stop offset=".059" stop-color="#0a7b8d" />
      <stop offset=".119" stop-color="#0a8798" />
      <stop offset=".179" stop-color="#0b9bab" />
      <stop offset=".238" stop-color="#0db7c4" />
      <stop offset=".285" stop-color="#0fd3de" />
      <stop offset=".479" stop-color="#0db0be" />
      <stop offset=".693" stop-color="#0b91a1" />
      <stop offset=".875" stop-color="#0a7d90" />
      <stop offset="1" stop-color="#0a778a" />
    </linearGradient>
    <linearGradient id="uuid-44b30870-0666-456a-bb94-983c1308b0f2" data-name="Degradado sin nombre 744" x1="251.084" y1="579.354" x2="286.712" y2="465.566" gradientUnits="userSpaceOnUse">
      <stop offset="0" stop-color="#0a778a" />
      <stop offset=".096" stop-color="#0a7b8d" />
      <stop offset=".198" stop-color="#0a8899" />
      <stop offset=".303" stop-color="#0c9dad" />
      <stop offset=".41" stop-color="#0dbac8" />
      <stop offset=".48" stop-color="#0fd3de" />
      <stop offset=".608" stop-color="#0db3c1" />
      <stop offset=".767" stop-color="#0b92a3" />
      <stop offset=".9" stop-color="#0a7e90" />
      <stop offset=".989" stop-color="#0a778a" />
    </linearGradient>
    <linearGradient id="uuid-a61b5317-7e9d-4bf7-a5ca-a84162e228a8" data-name="Degradado sin nombre 745" x1="313.359" y1="520.032" x2="257.65" y2="609.939" gradientUnits="userSpaceOnUse">
      <stop offset="0" stop-color="#0a778a" />
      <stop offset=".441" stop-color="#0fd3de" />
      <stop offset=".545" stop-color="#0fcad6" />
      <stop offset=".713" stop-color="#10b2c0" />
      <stop offset=".922" stop-color="#138c9d" />
      <stop offset="1" stop-color="#147c8f" />
    </linearGradient>
    <linearGradient id="uuid-3526ca4e-f611-48f6-9707-7356315dda3e" data-name="Degradado sin nombre 745" x1="310.772" y1="518.429" x2="255.063" y2="608.335" xlink:href="#uuid-a61b5317-7e9d-4bf7-a5ca-a84162e228a8" />
    <linearGradient id="uuid-6802a5e5-092c-4eba-a865-e94eab6b9f2e" data-name="Degradado sin nombre 745" x1="304.586" y1="514.596" x2="248.877" y2="604.503" xlink:href="#uuid-a61b5317-7e9d-4bf7-a5ca-a84162e228a8" />
    <linearGradient id="uuid-740eb056-acbc-4866-8de0-abdca84daacb" data-name="Degradado sin nombre 744" x1="258.329" y1="581.389" x2="293.906" y2="467.765" xlink:href="#uuid-44b30870-0666-456a-bb94-983c1308b0f2" />
    <linearGradient id="uuid-2aa91942-5220-4f2b-8b17-de1a7212d6e6" data-name="Degradado sin nombre 744" x1="250.022" y1="612.666" x2="297.24" y2="490.472" xlink:href="#uuid-44b30870-0666-456a-bb94-983c1308b0f2" />
    <linearGradient id="uuid-80e14aeb-29ae-471c-85ee-d5ecc37d9698" data-name="Degradado sin nombre 743" x1="290.079" y1="506.796" x2="379.583" y2="506.796" gradientUnits="userSpaceOnUse">
      <stop offset="0" stop-color="#0b8496" />
      <stop offset=".303" stop-color="#0a8294" />
      <stop offset=".412" stop-color="#0a7b8e" />
      <stop offset=".447" stop-color="#0a778a" />
      <stop offset=".7" stop-color="#0a788b" />
      <stop offset=".791" stop-color="#0a7f91" />
      <stop offset=".856" stop-color="#0b8b9c" />
      <stop offset=".908" stop-color="#0c9cac" />
      <stop offset=".953" stop-color="#0db2c0" />
      <stop offset=".993" stop-color="#0eccd8" />
      <stop offset="1" stop-color="#0fd3de" />
    </linearGradient>
    <linearGradient id="uuid-53173f59-497a-4f2e-82c8-a73163ce4712" data-name="Degradado sin nombre 743" x1="292.069" y1="518.003" x2="375.214" y2="518.003" xlink:href="#uuid-80e14aeb-29ae-471c-85ee-d5ecc37d9698" />
    <linearGradient id="uuid-43efabcf-c479-4064-8fff-ef0326085fb4" data-name="Degradado sin nombre 743" x1="293.962" y1="530.021" x2="373.175" y2="530.021" xlink:href="#uuid-80e14aeb-29ae-471c-85ee-d5ecc37d9698" />
    <linearGradient id="uuid-4306eb35-2918-4fd1-a7f0-6ade3b0f1c02" data-name="Degradado sin nombre 742" x1="302.155" y1="521.868" x2="396.665" y2="521.868" gradientUnits="userSpaceOnUse">
      <stop offset="0" stop-color="#0dabba" />
      <stop offset=".005" stop-color="#0dadbc" />
      <stop offset=".043" stop-color="#0dbecb" />
      <stop offset=".09" stop-color="#0ecad6" />
      <stop offset=".157" stop-color="#0ed1dc" />
      <stop offset=".341" stop-color="#0fd3de" />
      <stop offset=".342" stop-color="#0fd2dd" />
      <stop offset=".447" stop-color="#15b5c3" />
      <stop offset=".558" stop-color="#199fae" />
      <stop offset=".679" stop-color="#1d8fa0" />
      <stop offset=".815" stop-color="#1f8597" />
      <stop offset="1" stop-color="#208395" />
    </linearGradient>
    <linearGradient id="uuid-35dfc36f-cbd5-4f74-bbf9-7e82f81c91e9" data-name="Degradado sin nombre 741" x1="299.682" y1="526.636" x2="384.288" y2="526.636" gradientUnits="userSpaceOnUse">
      <stop offset=".07" stop-color="#519eac" />
      <stop offset=".218" stop-color="#2cbac7" />
      <stop offset=".358" stop-color="#0fd3de" />
      <stop offset=".383" stop-color="#11c9d5" />
      <stop offset=".464" stop-color="#16afbd" />
      <stop offset=".555" stop-color="#1a9bab" />
      <stop offset=".658" stop-color="#1d8d9e" />
      <stop offset=".784" stop-color="#1f8597" />
      <stop offset="1" stop-color="#208395" />
    </linearGradient>
    <linearGradient id="uuid-5904cf6c-8ebc-4164-bd71-b791da5c9cee" data-name="Degradado sin nombre 740" x1="300.748" y1="512.424" x2="395.147" y2="512.424" gradientUnits="userSpaceOnUse">
      <stop offset="0" stop-color="#0dabba" />
      <stop offset=".006" stop-color="#0dadbc" />
      <stop offset=".053" stop-color="#0dbecb" />
      <stop offset=".111" stop-color="#0ecad6" />
      <stop offset=".192" stop-color="#0ed1dc" />
      <stop offset=".419" stop-color="#0fd3de" />
      <stop offset=".722" stop-color="#17abb9" />
      <stop offset="1" stop-color="#208395" />
    </linearGradient>
    <linearGradient id="uuid-1f43ae41-95d7-488b-9505-acc0f23f3c1b" data-name="Degradado sin nombre 262" x1="299.384" y1="521.738" x2="321.998" y2="521.738" gradientUnits="userSpaceOnUse">
      <stop offset="0" stop-color="#0b8496" />
      <stop offset=".225" stop-color="#0b8597" />
      <stop offset=".306" stop-color="#0b8c9d" />
      <stop offset=".364" stop-color="#0c98a8" />
      <stop offset=".411" stop-color="#0ca9b8" />
      <stop offset=".451" stop-color="#0dbfcb" />
      <stop offset=".478" stop-color="#0fd3de" />
    </linearGradient>
    <linearGradient id="uuid-0bdf34f0-54d4-4870-8acb-99766ae37314" data-name="Degradado sin nombre 641" x1="506.509" y1="533.342" x2="589.418" y2="533.342" gradientUnits="userSpaceOnUse">
      <stop offset="0" stop-color="#0fd3de" />
      <stop offset="1" stop-color="#84d8cc" />
    </linearGradient>
  </defs>
  <path d="m147.669,552.395c-.734-4.173-3.616-20.164-4.322-22.158-.971-2.747-1.787-5.363-2.576-7.892-2.402-7.699-4.3-13.78-8.137-15.306-3.125-1.244-5.352.466-8.652,3.425l-.655.585c-2.138,1.895-4.871,3.556-8.122,4.936l-1.044-2.459c2.984-1.267,5.472-2.774,7.393-4.477l.644-.575c2.911-2.611,6.528-5.864,11.423-3.918,5.022,1.997,7.086,8.615,9.701,16.993.782,2.506,1.589,5.097,2.544,7.797.89,2.518,4.454,22.716,4.454,22.818l-2.652.231Z" fill="url(#uuid-576902d1-63f1-4f6c-97a8-4d39977a7d52)" stroke-width="0" />
  <path d="m150.37,565.886c-1.537-.603-2.853-1.953-3.611-3.704-.937-2.16-1.076-4.549-1.209-6.858-.048-.805-.093-1.599-.176-2.36-.366-3.379-.834-6.141-1.476-8.692-2.077-8.248-5.053-15.282-9.097-21.501-1.588-2.442-3.376-5.189-6.093-5.744-2.583-.529-5.171,1.052-7.664,2.584-.418.257-.829.509-1.232.746-.638.376-1.273.761-1.907,1.145-2.698,1.635-5.488,3.325-8.596,4.393l-.88-2.575c2.834-.973,5.379-2.515,8.074-4.148.644-.39,1.289-.781,1.936-1.162.389-.23.785-.474,1.189-.721,2.803-1.722,5.977-3.675,9.623-2.929,3.826.782,6.035,4.177,7.81,6.904,4.224,6.495,7.317,13.797,9.468,22.341.674,2.677,1.164,5.557,1.544,9.064.087.805.137,1.644.185,2.495.121,2.072.246,4.216.99,5.933.473,1.092,1.242,1.914,2.111,2.254l-.988,2.535Z" fill="url(#uuid-fb61bcb0-49f3-4f6e-9350-c80ee676b442)" stroke-width="0" />
  <path d="m148.983,567.565c-1.865-1.151-3.049-3.43-4.001-5.262-.149-.287-.292-.564-.433-.823-1.856-3.443-3.499-7.052-5.09-10.543l-.109-.237c-.662-1.452-1.318-2.906-1.975-4.36-1.238-2.741-2.475-5.482-3.746-8.207l-.273-.586c-2.671-5.749-4.771-10.304-11.032-10.02-2.306.099-4.543.723-6.911,1.384-1.235.344-2.511.701-3.797.975-1.296.277-2.61.502-3.881.72-1.254.215-2.552.437-3.804.705l-.559-2.612c1.307-.28,2.631-.507,3.913-.726,1.244-.213,2.532-.434,3.775-.699,1.204-.257,2.44-.602,3.636-.936,2.409-.673,4.901-1.368,7.514-1.481,8.043-.338,10.85,5.709,13.57,11.564l.271.583c1.274,2.735,2.517,5.485,3.759,8.235.655,1.451,1.311,2.903,1.971,4.351l.109.238c1.572,3.45,3.198,7.018,5.01,10.383.146.271.296.56.452.859.799,1.54,1.795,3.456,3.033,4.22l-1.403,2.274Z" fill="url(#uuid-ad9f3339-203c-46bf-8fce-0c2a7fdcf4f0)" stroke-width="0" />
  <path d="m151.587,570.76c-.478,0-1-.076-1.527-.312-2.697-1.207-5.036-3.309-6.951-6.247-1.736-2.661-3.378-5.426-4.966-8.1-1.888-3.179-3.84-6.466-5.942-9.562l-.346-.511c-2.793-4.122-6.268-9.253-10.934-10.981-6.777-2.511-16.008-1.19-22.361.021l-.501-2.625c6.667-1.271,16.385-2.646,23.791.098,5.469,2.027,9.21,7.55,12.217,11.988l.345.509c2.148,3.163,4.121,6.486,6.029,9.699,1.574,2.65,3.201,5.391,4.906,8.005,1.631,2.501,3.584,4.273,5.805,5.268.334.148.822.055,1.296-.035.399-.075.81-.159,1.237-.107l-.296,2.655c-.103.002-.261.043-.438.077-.372.071-.842.161-1.363.161Z" fill="url(#uuid-7e113c40-39cf-4ceb-b0fa-2b0ee21fb977)" stroke-width="0" />
  <path d="m151.655,570.22h-.041c-4.048-.079-9.027-3.448-16.65-11.262-.163-.168-.258-.273-.507-.553-.546-.612-1.995-2.237-7.377-8.057-5.093-5.509-9.578-9.296-16.194-11.151-5.983-1.678-12.234-2.012-19.741-1.968l-.01-2.672c7.726-.033,14.192.306,20.474,2.067,7.22,2.025,12.024,6.058,17.434,11.91,5.398,5.838,6.859,7.476,7.409,8.093.211.236.29.325.427.465,4.041,4.143,9.742,9.566,13.895,10.359-.016-1.061.396-1.683,1.226-1.853l.534,2.617c.621-.127.891-.673.899-.937-.002.086.011.188.022.294.056.571.14,1.433-.465,2.087-.335.362-.807.56-1.333.56Z" fill="url(#uuid-a54e1e6d-e72c-4a4f-b4a4-f33c91565ea8)" stroke-width="0" />
  <path d="m152.518,582.194c-2.393-3.127-4.869-6.097-7.358-8.829-9.872-10.838-21.925-18.392-31.321-23.762-5.363-2.986-10.679-5.792-16.454-7.146-5.868-1.376-12.262-1.84-19.535-1.414l-.311-5.334c7.797-.456,14.688.051,21.065,1.546,6.448,1.512,12.127,4.502,17.861,7.695,9.763,5.579,22.271,13.427,32.647,24.817,2.59,2.844,5.164,5.933,7.65,9.18l-4.243,3.248Z" fill="url(#uuid-40dc4e65-450e-45d0-b153-6e4d86d6e7ea)" stroke-width="0" />
  <path d="m151.429,557.92l-.344-5.332c.42-.027.837-.045,1.252-.063,2.766-.117,4.763-.202,7.461-3.29,13.521-15.472,18.398-24.843,18.4-27.37l5.343.004c-.004,4.853-6.448,15.695-19.719,30.882-4.207,4.813-8.116,4.979-11.259,5.112-.377.016-.755.032-1.134.056Z" fill="url(#uuid-af95e0c9-9f41-4b5c-a639-9878d9f3f060)" stroke-width="0" />
  <path d="m153.736,567.222c-.073,0-.146,0-.219-.001l.04-2.672c5.622.104,9.147-3.566,11.079-6.641,2.846-4.53,5.092-9.582,7.264-14.466,1.509-3.394,3.069-6.903,4.829-10.241l2.363,1.246c-1.718,3.259-3.259,6.727-4.751,10.08-2.209,4.971-4.495,10.11-7.442,14.802-3.202,5.096-7.87,7.892-13.162,7.892Z" fill="url(#uuid-aedccc1d-cdd6-4b59-a4c9-93176368e579)" stroke-width="0" />
  <path d="m158.912,578.741c-2.925,0-5.088-2.067-6.739-3.646l1.845-1.931c2.092,2.001,3.746,3.368,5.965,2.752,2.005-.556,3.36-2.86,4.205-4.544,1.419-2.831,2.472-5.923,3.491-8.913l.424-1.24c1.448-4.214,2.976-8.4,4.545-12.674.421-1.145.83-2.297,1.239-3.45,1.019-2.875,2.073-5.847,3.314-8.7l2.45,1.066c-1.203,2.768-2.242,5.696-3.247,8.527-.412,1.163-.823,2.324-1.247,3.478-1.564,4.261-3.088,8.433-4.526,12.622l-.422,1.234c-1.048,3.076-2.131,6.256-3.633,9.25-1.073,2.139-2.849,5.08-5.879,5.921-.625.172-1.22.25-1.786.25Z" fill="url(#uuid-a7177f3f-0a04-4591-8cbf-be8745dc23c3)" stroke-width="0" />
  <path d="m162.326,590.753c-2.75,0-5.148-2.277-6.883-3.923-.393-.374-.771-.733-1.132-1.049l1.76-2.01c.386.338.791.721,1.212,1.121,2.523,2.396,4.468,3.987,6.486,2.727.966-.604,1.76-1.699,2.361-3.256.739-1.922,1.323-3.999,1.889-6.008.196-.698.391-1.393.594-2.083,2.708-9.254,4.91-19.107,6.732-30.123.156-.936.306-1.872.452-2.809l2.64.413c-.148.944-.301,1.888-.456,2.832-1.84,11.123-4.066,21.079-6.805,30.438-.198.679-.391,1.366-.585,2.055-.581,2.068-1.183,4.206-1.967,6.245-.814,2.11-1.97,3.644-3.438,4.561-.984.616-1.941.869-2.858.869Z" fill="url(#uuid-99e94042-822d-441b-967f-f3466f51eef8)" stroke-width="0" />
  <path d="m163.626,604.526c-.074,0-.15-.002-.228-.006-3.399-.169-6.334-3.977-7.85-10.187l2.594-.635c1.167,4.775,3.331,8.051,5.388,8.154.406.016.723-.086.895-.143,2.759-.895,3.978-5.697,4.499-7.747,2.411-9.48,3.426-18.218,3.971-22.912l.066-.563c.325-2.783,1.142-6.211,1.797-8.964.376-1.574.699-2.933.792-3.611l2.647.363c-.111.807-.432,2.157-.839,3.867-.641,2.686-1.437,6.029-1.744,8.655l-.065.56c-.552,4.757-1.58,13.61-4.035,23.261-.684,2.687-2.104,8.28-6.261,9.63-.238.077-.844.277-1.629.277Z" fill="url(#uuid-fbf6dc79-82b7-4c5e-b462-68559be53c4d)" stroke-width="0" />
  <path d="m182.951,529.345l-4.776-4.279c5.293-5.908,12.997-18.728,19.187-29.029,8.593-14.299,10.06-16.376,12.07-17.091l2.15,6.042c.438-.157.668-.363.677-.372-1.224,1.118-5.568,8.347-9.401,14.724-6.33,10.534-14.208,23.643-19.907,30.005Z" fill="url(#uuid-7656eb2e-a530-44b0-b9ca-081c286750b6)" stroke-width="0" />
  <path d="m183.255,518.622l-2.926-1.311,4.203-9.4c16.286-36.463,19.797-43.559,23.333-43.251,1.422.133,1.849,1.618,2.193,2.81.052.18.099.348.145.484l-3.041,1.015c-.037-.109-.074-.234-.114-.369-3.173,3.861-10.519,20.308-19.589,40.617l-4.204,9.404Z" fill="url(#uuid-f2d3bbd5-2e6b-484a-b3a6-5b0dad3a83b8)" stroke-width="0" />
  <path d="m183.741,508.816l-3.045-1.004c4.147-12.579,8.133-25.14,11.848-37.334l.968-3.196c3.989-13.186,6.009-19.866,10.677-19.866.045,0,.089,0,.134.002,2.874.077,5.688,3.12,6.876,5.945l-2.956,1.243c-.929-2.207-2.916-3.954-4.006-3.983-.009,0-.019,0-.028,0-2.309,0-4.658,7.766-7.628,17.588l-.972,3.202c-3.722,12.217-7.716,24.802-11.869,37.404Z" fill="url(#uuid-9d148ef7-dec7-44f7-be4c-73d905b2103a)" stroke-width="0" />
  <path d="m183.803,505.446l-3.168-.493c.406-2.61.96-7.317,1.548-12.301.703-5.976,1.431-12.155,1.979-15.343,1.466-8.538,2.78-15.557,4.134-22.091.78-3.76,1.702-8.127,2.786-12.375l.442-1.762c.75-3.013,1.527-6.128,2.728-9.084.705-1.735,2.75-5.781,6.499-5.882,3.16-.07,5.621,2.494,6.675,6.896.753,3.147,1.765,5.774,3.092,8.033l-2.764,1.624c-1.49-2.536-2.618-5.45-3.447-8.91-.111-.461-1.134-4.537-3.469-4.438-1.518.041-2.864,2.034-3.616,3.885-1.116,2.744-1.864,5.747-2.588,8.651l-.447,1.779c-1.067,4.183-1.981,8.508-2.753,12.234-1.346,6.497-2.653,13.482-4.113,21.983-.533,3.104-1.257,9.241-1.955,15.175-.591,5.014-1.149,9.751-1.563,12.419Z" fill="url(#uuid-8bb94314-7e7b-47b8-868f-a13ea7527689)" stroke-width="0" />
  <path d="m186.845,462.16l-3.187-.355c5.08-45.681,8.482-59.61,14.554-59.617h.006c6.071,0,8.219,10.348,11.19,24.669l.325,1.564-3.139.653-.325-1.566c-2.151-10.366-4.589-22.114-8.052-22.114h-.001c-.274,0-2.77.45-5.794,15.95-2.123,10.881-3.936,26.047-5.577,40.816Z" fill="url(#uuid-e4729968-b0b9-4031-b03a-d1a573e8c5be)" stroke-width="0" />
  <path d="m256.316,549.812c-.296-.607-.776-1.597-1.359-2.818-7.9-16.596-12.027-28.617-15.341-38.277-3.405-9.919-6.094-17.754-11.366-26.137-5.101-8.11-11.874-15.481-20.131-21.909l3.939-5.06c8.847,6.887,16.121,14.812,21.619,23.555,5.669,9.011,8.465,17.157,12.004,27.469,3.262,9.505,7.322,21.336,15.067,37.601.57,1.198,1.042,2.17,1.332,2.766l-5.763,2.809Z" fill="url(#uuid-6767044c-624c-4021-965e-0a8cd4dcac52)" stroke-width="0" />
  <path d="m256.293,568.148c-3.174-5.3-8.953-17.446-13.128-28.597-3.836-10.24-5.581-18.288-7.121-25.389-1.88-8.669-3.505-16.156-8.319-25.311-4.457-8.478-10.655-16.344-18.421-23.378l2.199-2.361c8.046,7.288,14.476,15.452,19.109,24.264,5.015,9.538,6.681,17.22,8.611,26.116,1.516,6.995,3.236,14.924,6.992,24.948,4.112,10.982,9.777,22.9,12.879,28.078l-2.8,1.63Z" fill="url(#uuid-4221f1fb-20ee-44da-8c57-a3e2f12217d0)" stroke-width="0" />
  <path d="m254.547,587.996c-5.698,0-10.608-13.308-10.817-13.883-8.226-22.599-11.287-44.169-11.316-44.384-.463-2.857-.846-5.616-1.217-8.283-1.374-9.907-2.562-18.462-7.346-29.133-3.248-7.244-7.553-14.076-12.795-20.307l2.453-2.064c5.434,6.459,9.899,13.544,13.269,21.06,4.971,11.089,6.246,20.277,7.596,30.004.367,2.65.748,5.39,1.211,8.247.035.247,3.054,21.498,11.158,43.766,2.224,6.108,5.975,11.774,7.777,11.774.02,0,.038,0,.056-.001.32-.022.735-.338,1.167-.89l2.523,1.977c-1.028,1.314-2.197,2.025-3.471,2.111-.082.006-.166.008-.247.008Z" fill="url(#uuid-3275761e-5b77-4c55-b857-ab6c3b9c1f48)" stroke-width="0" />
  <path d="m250.819,608.728c-1.739,0-4.037-.752-6.517-3.589-4.338-4.961-6.011-11.347-7.173-17.509-.608-3.228-1.318-6.507-2.004-9.679-.448-2.072-.896-4.143-1.321-6.218l-1.226-5.962c-.504-2.444-1.013-4.889-1.524-7.336-2.911-13.971-5.921-28.417-7.856-42.793-1.008-7.485-2.042-14.237-4.483-21.055-2.553-7.126-6.004-14.013-9.353-20.394l2.839-1.49c3.403,6.484,6.914,13.491,9.532,20.803,2.547,7.113,3.609,14.039,4.642,21.709,1.921,14.263,4.92,28.652,7.819,42.567.51,2.449,1.02,4.897,1.524,7.343l1.228,5.965c.423,2.063.868,4.123,1.314,6.185.69,3.191,1.404,6.491,2.019,9.762,1.078,5.716,2.603,11.609,6.436,15.993,1.657,1.893,3.214,2.72,4.63,2.443.714-.138,1.406-.627,2.059-1.456l2.517,1.985c-1.143,1.451-2.479,2.333-3.97,2.618-.342.067-.721.109-1.131.109Z" fill="url(#uuid-0e9b8ea3-fff9-4b03-be92-e8389003c0ba)" stroke-width="0" />
  <path d="m243.575,628.126c-1.286,0-2.333-.308-3.115-.667-2.534-1.161-4.5-3.818-5.535-7.481-1.298-4.594-2.1-9.322-2.874-13.894-.325-1.913-.649-3.827-1.009-5.736-.893-4.726-1.796-9.654-2.759-15.065-1.121-6.291-2.258-12.888-3.384-19.607-1.297-7.743-2.605-15.81-3.888-23.978-1.435-9.139-2.872-18.619-4.271-28.176-1.536-10.507-3.06-21.341-4.528-32.2l1.481-3.656c1.467,10.849,4.033,17.892,6.22,35.391,1.196,9.573,2.831,19.015,4.264,28.142,1.282,8.158,2.588,16.215,3.883,23.946,1.124,6.709,2.26,13.295,3.378,19.575.962,5.4,1.863,10.316,2.753,15.031.364,1.929.692,3.862,1.02,5.795.761,4.488,1.548,9.129,2.799,13.557.775,2.744,2.12,4.675,3.786,5.438,1.306.6,2.862.485,4.623-.335,5.163-2.407,5.685-9.479,5.704-9.78l3.2.211c-.063.946-.803,9.329-7.55,12.474-1.594.743-3,1.011-4.199,1.011Z" fill="url(#uuid-20638b32-b15b-4ee1-8457-82a470192bf4)" stroke-width="0" />
  <path d="m239.146,654.924c-.535,0-1.096-.061-1.685-.185-2.181-.456-7.292-1.525-14.479-50.8-3.892-26.675-7.72-63.065-10.78-102.465l3.196-.248c3.055,39.331,6.874,75.644,10.756,102.25,6.673,45.738,11.442,48.016,11.965,48.126,4.735.981,7.274-6.632,12.094-22.597l.66-2.183,3.068.929-.659,2.181c-4.762,15.771-7.545,24.992-14.135,24.992Z" fill="url(#uuid-76e15814-4012-47b5-90b4-47a41f451d38)" stroke-width="0" />
  <path d="m237.302,679.946c-.116,0-.217-.004-.301-.009-6.264-.396-9.26-10.833-9.798-12.921l3.106-.799c1.059,4.121,3.77,10.324,6.891,10.521.121.006.573.016,1.167-.19,3.92-1.361,6.409-9.371,7.349-15.816l3.173.463c-.698,4.781-3.017,16.142-9.471,18.381-.879.305-1.63.37-2.116.37Z" fill="url(#uuid-bb612c40-d841-4844-a0b8-6454a803e840)" stroke-width="0" />
  <path d="m258.733,588.248l-3.246-.463c.288-1.928,1.168-4.131,2.019-6.262.717-1.797,1.459-3.655,1.73-5.101,2.663-14.268,3.802-31.506,4.496-44.929.127-2.478.405-5.097.825-7.783.275-1.767.547-3.536.818-5.306.917-5.988,1.864-12.179,3.027-18.232l.942-4.953c.799-4.23,1.626-8.604,2.527-12.897.218-1.034.444-2.067.677-3.098.598-2.636,1.265-5.351,2.039-8.298l.406-1.556c.551-2.128,1.121-4.328,1.816-6.481l.175-.558c.673-2.168,1.798-5.792,5.721-5.792h.028c2.584.011,3.926,2.012,4.727,3.208.919,1.37,1.646,2.319,2.684,3.502l-2.49,2.087c-1.123-1.28-1.946-2.354-2.937-3.832-.798-1.19-1.3-1.756-2-1.76h-.01c-1.286,0-1.817,1.039-2.586,3.517l-.186.592c-.667,2.065-1.226,4.219-1.765,6.303l-.408,1.566c-.765,2.913-1.424,5.593-2.014,8.194-.231,1.015-.453,2.031-.666,3.05-.896,4.262-1.719,8.62-2.516,12.835l-.942,4.961c-1.152,5.995-2.095,12.156-3.007,18.115-.271,1.774-.542,3.546-.82,5.316-.409,2.616-.667,5.056-.791,7.46-.699,13.521-1.848,30.894-4.545,45.344-.327,1.749-1.126,3.753-1.901,5.692-.784,1.963-1.594,3.993-1.828,5.558Z" fill="url(#uuid-44b30870-0666-456a-bb94-983c1308b0f2)" stroke-width="0" />
  <path d="m256.089,614.769l-4.732-2.484,20.9-39.805c2.276-3.752,5.876-6.404,10.134-7.469,2.575-.643,4.843-2.185,6.39-4.341l12.749-17.784,4.344,3.113-12.75,17.784c-2.285,3.186-5.636,5.463-9.436,6.413-2.857.714-5.278,2.485-6.821,4.99l-20.777,39.584Z" fill="url(#uuid-a61b5317-7e9d-4bf7-a5ca-a84162e228a8)" stroke-width="0" />
  <path d="m286.558,566.505l-4.047-1.378c11.023-32.387,14.755-34.473,17.91-33.808,2.405.506,3.076,3.414,3.296,4.369l-4.166.96c-.052-.228-.103-.421-.153-.583-1.515,1.728-5.196,7.984-12.839,30.439Z" fill="url(#uuid-3526ca4e-f611-48f6-9707-7356315dda3e)" stroke-width="0" />
  <path d="m278.871,571.621l-4.116-1.152c.039-.138,3.926-14.013,8.44-27.709,9.585-29.084,12.471-29.084,14.578-29.084v4.275c.262,0,.444-.08.492-.111-3.318,2.119-12.466,29.008-19.394,53.782Z" fill="url(#uuid-6802a5e5-092c-4eba-a865-e94eab6b9f2e)" stroke-width="0" />
  <path d="m259.207,598.555l-3.949-1.634c4.613-11.147,8.192-22.644,10.64-34.169,2.794-13.161,3.96-21.882,5.192-31.116.867-6.492,1.764-13.205,3.276-21.564,2.557-14.151,8.428-28.228,14.957-35.862l3.248,2.778c-6.071,7.1-11.567,20.385-13.999,33.844-1.493,8.262-2.384,14.925-3.245,21.369-1.19,8.907-2.419,18.117-5.248,31.438-2.501,11.78-6.158,23.527-10.871,34.915Z" fill="url(#uuid-740eb056-acbc-4866-8de0-abdca84daacb)" stroke-width="0" />
  <path d="m257.439,605.116l-1.952-5.187,13.72-34.624c1.787-4.51,3.169-9.227,4.108-14.021,10.673-54.571,18.697-53.341,21.333-52.941l-.645,4.226c-.026.003-3.314-.311-8.854,17.762-3.421,11.158-6.254,24.697-7.638,31.775-.989,5.052-2.445,10.022-4.329,14.775l-15.742,38.237Z" fill="url(#uuid-2aa91942-5220-4f2b-8b17-de1a7212d6e6)" stroke-width="0" />
  <path d="m379.305,541.885c-7.724-.67-12.544-.579-17.206-.491-4.22.08-8.206.155-13.988-.318-4.553-.372-7.102-1.846-9.737-4.104-3.045-2.607-4.332-5.674-5.577-8.64-1.293-3.08-2.515-5.99-5.738-8.221-1.614-1.117-3.006-1.578-3.926-1.884l-.376-.126c-7.288-2.528-17.671-16.791-32.678-44.885l2.828-1.51c14.203,26.59,24.599,41.18,30.901,43.366l.334.112c1.028.341,2.748.911,4.741,2.29,3.993,2.764,5.455,6.247,6.869,9.616,1.151,2.742,2.239,5.332,4.707,7.446,2.257,1.933,4.187,3.039,7.913,3.343,5.62.46,9.528.386,13.667.308,4.742-.089,9.648-.181,17.543.502l-.278,3.195Z" fill="url(#uuid-80e14aeb-29ae-471c-85ee-d5ecc37d9698)" stroke-width="0" />
  <path d="m345.619,555.583c-.263,0-.527-.008-.793-.026-6.475-.429-9.181-6.754-12.314-14.077-2.106-4.924-4.493-10.504-8.376-15.02-13.053-15.182-23.703-28.105-32.068-44.584l2.86-1.451c8.202,16.158,18.729,28.928,31.64,43.944,4.205,4.891,6.695,10.713,8.893,15.85,2.829,6.616,5.065,11.841,9.578,12.14,4.047.258,8-2.376,12.155-5.177,5.224-3.522,11.14-7.514,18.02-5.276l-.994,3.048c-5.382-1.753-10.169,1.472-15.234,4.886-4.192,2.826-8.52,5.744-13.368,5.744Z" fill="url(#uuid-53173f59-497a-4f2e-82c8-a73163ce4712)" stroke-width="0" />
  <path d="m344.802,570.826c-.916,0-1.82-.222-2.707-.709-4.598-2.515-7.887-8.941-13.854-20.604-6.489-12.68-16.294-31.842-34.279-58.504l2.657-1.793c18.093,26.822,27.953,46.088,34.475,58.836,5.493,10.733,8.807,17.211,12.539,19.253,3.57,1.946,10.195-6.561,15.038-12.777,5.638-7.236,9.709-12.466,13.315-10.203,1.695,1.066,1.191,3.303.823,4.936-.087.383-.217.962-.215,1.146l-3.199.217c-.044-.604.109-1.283.286-2.068.091-.403.239-1.06.283-1.511-1.724.416-6.256,6.232-8.764,9.452-5.501,7.061-11.163,14.326-16.397,14.326Z" fill="url(#uuid-43efabcf-c479-4064-8fff-ef0326085fb4)" stroke-width="0" />
  <path d="m393.068,540.962c-3.166,0-6.984-.743-11.21-1.565-9.073-1.764-16.441-6.263-21.901-13.373-1.461-1.903-2.776-3.599-4.075-5.277-1.578-2.037-3.134-4.045-4.902-6.357-.344-.45-.719-.965-1.12-1.517-1.819-2.505-4.568-6.291-7.025-6.798-3.195-.664-6.384,2.38-8.007,4.25-1.474,1.696-2.915,3.462-4.309,5.171-3.075,3.769-6.254,7.666-10.018,11.101-5.124,4.678-10.726,8.924-16.65,12.62l-1.697-2.72c5.759-3.594,11.204-7.721,16.186-12.268,3.59-3.275,6.555-6.911,9.695-10.76,1.409-1.728,2.866-3.514,4.373-5.247,2.543-2.929,6.537-6.218,11.074-5.287,3.675.758,6.737,4.975,8.972,8.054.384.529.742,1.022,1.072,1.454,1.764,2.306,3.316,4.309,4.889,6.341,1.302,1.681,2.62,3.381,4.084,5.288,4.969,6.47,11.688,10.568,19.97,12.178,5.35,1.041,10.4,2.025,13.319,1.194l.877,3.084c-1.074.305-2.28.434-3.597.434Z" fill="url(#uuid-4306eb35-2918-4fd1-a7f0-6ade3b0f1c02)" stroke-width="0" />
  <path d="m384.177,538.736c-14.707-.506-27.212-7.537-39.306-14.337l-1.855-1.042c-.835-.469-1.661-.973-2.491-1.48-2.024-1.237-3.937-2.405-6.013-3.075-8.901-2.867-20.023.073-33.056,8.734l-1.774-2.67c13.888-9.231,25.937-12.296,35.813-9.116,2.44.786,4.607,2.11,6.702,3.391.795.486,1.586.97,2.387,1.418l1.859,1.044c12.3,6.916,23.918,13.449,37.845,13.928l-.111,3.204Z" fill="url(#uuid-35dfc36f-cbd5-4f74-bbf9-7e82f81c91e9)" stroke-width="0" />
  <path d="m394.324,541.681l-.784-.12c-4.21-.638-10.572-1.602-16.546-5.998-.828-.609-1.707-1.213-2.621-1.84-4.405-3.025-9.887-6.79-13.979-14.028-3.047-5.39-5.387-10.81-7.45-15.592-3.761-8.712-6.731-15.593-11.046-15.593-3.198,0-10.492,15.312-13.631,35.657l-.106.699c-.623,4.116-1.477,9.753-5.994,13.274-5.998,4.671-15.005,4.332-21.419-.812l3.344-4.168c4.504,3.612,10.724,3.931,14.791.765,2.838-2.211,3.452-6.274,3.995-9.858l.109-.715c1.724-11.177,8.484-40.184,18.912-40.184,7.827,0,11.412,8.305,15.951,18.819,2.011,4.659,4.29,9.939,7.198,15.08,3.483,6.162,8.195,9.398,12.351,12.253.963.662,1.891,1.299,2.764,1.941,4.91,3.614,10.267,4.426,14.179,5.018l.806.123-.822,5.28Z" fill="url(#uuid-5904cf6c-8ebc-4164-bd71-b791da5c9cee)" stroke-width="0" />
  <path d="m320.157,545.951c-.7-1.187-1.394-2.388-2.079-3.605-7.79-13.813-14.079-28.689-18.693-44.212l2.05-.609c4.569,15.371,10.795,30.097,18.506,43.772.678,1.204,1.364,2.393,2.058,3.567l-1.841,1.087Z" fill="url(#uuid-1f43ae41-95d7-488b-9505-acc0f23f3c1b)" stroke-width="0" />
  </svg>